<svg width="21" height="15" viewBox="0 0 21 15" fill="none" xmlns="http://www.w3.org/2000/svg">
<path d="M6.49992 14.689C6.6966 14.8882 6.96321 15 7.24118 15C7.51915 15 7.78576 14.8882 7.98244 14.689L20.7762 1.71983C20.9352 1.51446 21.0141 1.25698 20.9979 0.996437C20.9817 0.735895 20.8715 0.490499 20.6884 0.307C20.5052 0.123501 20.2618 0.0147225 20.0046 0.00138883C19.7474 -0.0119449 19.4944 0.0710976 19.2937 0.234696L7.24118 12.4347L1.86003 6.99399C1.7669 6.87887 1.65095 6.78486 1.5197 6.71804C1.38845 6.65123 1.24483 6.6131 1.09812 6.60612C0.95141 6.59914 0.804892 6.62347 0.668048 6.67754C0.531204 6.7316 0.407085 6.81419 0.303725 6.91997C0.200366 7.02574 0.120071 7.15234 0.0680375 7.29157C0.016004 7.43079 -0.00660784 7.57955 0.0016658 7.72819C0.00993944 7.87684 0.0489141 8.02207 0.116067 8.15448C0.183219 8.28689 0.277053 8.40353 0.391494 8.49684L6.49992 14.689Z" fill="#ECC8AF"/>
</svg>
