<svg width="23" height="26" viewBox="0 0 23 26" fill="none" xmlns="http://www.w3.org/2000/svg">
<path d="M18.3291 15.593C17.7409 12.8707 15.6212 10.7119 12.9199 10.0674C14.1616 9.02002 14.9521 7.45334 14.9521 5.70555C14.9521 2.55949 12.3926 0 9.24675 0C6.10069 0 3.5412 2.55949 3.5412 5.70535C3.5412 7.45334 4.33168 9.01982 5.57344 10.0672C2.38097 10.8289 0 13.7052 0 17.1274V22.7869H12.9034C13.6917 24.6721 15.5549 26 17.7227 26C20.6017 26 22.9438 23.6579 22.9438 20.7789C22.9438 18.1049 20.9235 15.8945 18.3291 15.593ZM5.08249 5.70535C5.08249 3.40929 6.95049 1.54129 9.24675 1.54129C11.5428 1.54129 13.4108 3.40929 13.4108 5.70535C13.4108 8.00142 11.5428 9.86961 9.24675 9.86961C6.95049 9.86961 5.08249 8.00142 5.08249 5.70535ZM12.5015 20.7789C12.5015 20.9362 12.5089 21.0919 12.5225 21.2458H1.54129V17.1274C1.54129 13.9752 4.10574 11.4107 7.25795 11.4107H11.2354C13.876 11.4107 16.1036 13.2103 16.7574 15.6474C14.338 16.1016 12.5015 18.2295 12.5015 20.7789ZM17.7227 24.4587C15.6936 24.4587 14.0428 22.8079 14.0428 20.7789C14.0428 18.7498 15.6936 17.099 17.7227 17.099C19.7517 17.099 21.4025 18.7498 21.4025 20.7789C21.4025 22.8079 19.7517 24.4587 17.7227 24.4587Z" fill="#495867"/>
<path d="M18.4933 18.6201H16.952V20.0083H15.5639V21.5496H16.952V22.9377H18.4933V21.5496H19.8815V20.0083H18.4933V18.6201Z" fill="#495867"/>
</svg>
