<svg width="21" height="21" viewBox="0 0 21 21" fill="none" xmlns="http://www.w3.org/2000/svg">
<path d="M19.8247 17.9842C20.5156 18.6758 20.5156 19.7517 19.8247 20.4434C19.4792 20.7892 19.0569 20.9429 18.5963 20.9429C18.1356 20.9429 17.7133 20.7892 17.3678 20.4434L10.3429 13.4117L3.31794 20.4434C2.97245 20.7892 2.55019 20.9429 2.08954 20.9429C1.62888 20.9429 1.20662 20.7892 0.86113 20.4434C0.170151 19.7517 0.170151 18.6758 0.86113 17.9842L7.88608 10.9525L0.86113 3.92078C0.170151 3.22913 0.170151 2.15325 0.86113 1.4616C1.55211 0.76996 2.62697 0.76996 3.31794 1.4616L10.3429 8.4933L17.3678 1.4616C18.0588 0.76996 19.1337 0.76996 19.8247 1.4616C20.5156 2.15325 20.5156 3.22913 19.8247 3.92078L12.7997 10.9525L19.8247 17.9842Z" fill="#495867"/>
</svg>
