<svg width="29" height="21" viewBox="0 0 29 21" fill="none" xmlns="http://www.w3.org/2000/svg">
<path d="M8.86651 20.5282C9.12875 20.7937 9.48422 20.9429 9.85486 20.9429C10.2255 20.9429 10.581 20.7937 10.8432 20.5282L27.9016 3.23597C28.1136 2.96215 28.2188 2.61884 28.1972 2.27145C28.1756 1.92406 28.0287 1.59687 27.7844 1.3522C27.5402 1.10754 27.2157 0.962501 26.8728 0.944723C26.5298 0.926945 26.1925 1.03767 25.9249 1.2558L9.85486 17.5225L2.67999 10.2682C2.55581 10.1147 2.40122 9.98935 2.22622 9.90026C2.05122 9.81118 1.85972 9.76034 1.66411 9.75103C1.4685 9.74173 1.27314 9.77417 1.09068 9.84625C0.908223 9.91834 0.742731 10.0285 0.604918 10.1695C0.467106 10.3105 0.360046 10.4793 0.290668 10.665C0.22129 10.8506 0.191141 11.0489 0.202172 11.2471C0.213204 11.4453 0.26517 11.639 0.354707 11.8155C0.444244 11.9921 0.569355 12.1476 0.721943 12.272L8.86651 20.5282Z" fill="#495867"/>
</svg>
