<svg width="512" height="327" viewBox="0 0 512 327" fill="none" xmlns="http://www.w3.org/2000/svg">
<path d="M508.745 153.206C504.171 146.949 395.188 0 255.997 0C116.806 0 7.818 146.949 3.249 153.2C-1.083 159.136 -1.083 167.187 3.249 173.123C7.818 179.38 116.806 326.329 255.997 326.329C395.188 326.329 504.171 179.379 508.745 173.128C513.083 167.193 513.083 159.136 508.745 153.206ZM255.997 292.571C153.468 292.571 64.667 195.038 38.38 163.153C64.633 131.24 153.248 33.758 255.997 33.758C358.521 33.758 447.316 131.274 473.614 163.176C447.361 195.088 358.746 292.571 255.997 292.571Z" fill="#FBF3EE"/>
<path d="M9 153.5L99 62.5L313.5 11.5L485 162L404 257L255 306.5L110.5 263.5L9 153.5Z" fill="#FBF3EE"/>
</svg>
