<svg width="512" height="328" viewBox="0 0 512 328" fill="none" xmlns="http://www.w3.org/2000/svg">
<path d="M508.747 173.968C504.172 180.225 395.189 327.174 255.998 327.174C116.806 327.174 7.81802 180.225 3.24901 173.974C-1.083 168.038 -1.083 159.987 3.24901 154.051C7.81802 147.794 116.806 0.844212 255.998 0.844212C395.189 0.844212 504.172 147.795 508.747 154.046C513.085 159.981 513.085 168.038 508.747 173.968ZM255.998 34.6023C153.468 34.6023 64.6672 132.136 38.3801 164.021C64.6332 195.934 153.248 293.416 255.998 293.416C358.522 293.416 447.317 195.9 473.615 163.998C447.362 132.086 358.747 34.6023 255.998 34.6023Z" fill="#ECC8AF" fill-opacity="0.21"/>
<path d="M255.998 265.285C200.156 265.285 154.723 219.852 154.723 164.01C154.723 108.168 200.156 62.7346 255.998 62.7346C311.84 62.7346 357.273 108.168 357.273 164.01C357.273 219.852 311.84 265.285 255.998 265.285ZM255.998 96.4937C218.768 96.4937 188.482 126.781 188.482 164.01C188.482 201.239 218.769 231.526 255.998 231.526C293.227 231.526 323.514 201.239 323.514 164.01C323.514 126.781 293.228 96.4937 255.998 96.4937Z" fill="#ECC8AF" fill-opacity="0.21"/>
</svg>
