<svg width="30" height="30" viewBox="0 0 30 30" fill="none" xmlns="http://www.w3.org/2000/svg">
<path d="M21.1533 22.9688V25.3125C21.1533 27.8973 19.0504 30 16.4656 30H4.68771C2.10283 30 0 27.8973 0 25.3125V4.6875C0 2.10274 2.10283 0 4.68771 0H16.4656C19.0504 0 21.1533 2.10274 21.1533 4.6875V7.03125C21.1533 7.67853 20.6287 8.20312 19.9813 8.20312C19.334 8.20312 18.8094 7.67853 18.8094 7.03125V4.6875C18.8094 3.39523 17.7579 2.34375 16.4656 2.34375H4.68771C3.39538 2.34375 2.34385 3.39523 2.34385 4.6875V25.3125C2.34385 26.6048 3.39538 27.6562 4.68771 27.6562H16.4656C17.7579 27.6562 18.8094 26.6048 18.8094 25.3125V22.9688C18.8094 22.3215 19.334 21.7969 19.9813 21.7969C20.6287 21.7969 21.1533 22.3215 21.1533 22.9688ZM29.1432 12.987L26.519 10.3629C26.0612 9.90509 25.3191 9.90509 24.8615 10.3629C24.4038 10.8204 24.4038 11.5624 24.8615 12.02L26.7282 13.8867H12.6568C12.0095 13.8867 11.4849 14.4113 11.4849 15.0586C11.4849 15.7059 12.0095 16.2305 12.6568 16.2305H26.7282L24.8615 18.0972C24.4038 18.5548 24.4038 19.2968 24.8615 19.7543C25.0904 19.9832 25.3903 20.0977 25.6901 20.0977C25.9902 20.0977 26.2901 19.9832 26.519 19.7543L29.1432 17.1302C30.2856 15.9879 30.2856 14.1293 29.1432 12.987V12.987Z" fill="#ECC8AF"/>
</svg>
