<svg width="29" height="36" viewBox="0 0 29 36" fill="none" xmlns="http://www.w3.org/2000/svg">
<path d="M27.8499 28.4704C27.7442 28.4021 26.9491 27.8477 26.153 26.1703C24.691 23.0902 24.3841 18.7511 24.3841 15.6535C24.3841 15.64 24.3838 15.6267 24.3834 15.6133C24.3674 11.5194 21.9049 7.99038 18.381 6.40696V3.98534C18.381 1.7878 16.588 0 14.3841 0H14.0528C11.849 0 10.056 1.7878 10.056 3.98534V6.40682C6.52026 7.99534 4.0528 11.5424 4.0528 15.6535C4.0528 18.7511 3.74593 23.0901 2.2839 26.1703C1.48785 27.8476 0.692785 28.4021 0.587075 28.4704C0.141918 28.6755 -0.0775725 29.1492 0.0248376 29.6293C0.12823 30.1142 0.583496 30.4485 1.08067 30.4485H8.79806C8.84116 33.393 11.2553 35.7755 14.2185 35.7755C17.1817 35.7755 19.5958 33.393 19.6389 30.4485H27.3563C27.8534 30.4485 28.3088 30.1142 28.4122 29.6293C28.5144 29.1492 28.295 28.6754 27.8499 28.4704V28.4704ZM12.1618 3.98534C12.1618 2.94554 13.0101 2.09965 14.0529 2.09965H14.3842C15.4269 2.09965 16.2753 2.94554 16.2753 3.98534V5.72639C15.6107 5.58964 14.9227 5.51767 14.2182 5.51767C13.5139 5.51767 12.8262 5.58957 12.1619 5.72618V3.98534H12.1618ZM14.2185 33.6759C12.4165 33.6759 10.9466 32.2353 10.9038 30.4485H17.5331C17.4904 32.2352 16.0205 33.6759 14.2185 33.6759V33.6759ZM18.4581 28.3487C18.4579 28.3487 3.48018 28.3487 3.48018 28.3487C3.66233 28.0662 3.8477 27.7462 4.03196 27.3846C5.4431 24.6146 6.15863 20.6677 6.15863 15.6535C6.15863 11.2223 9.77415 7.61732 14.2181 7.61732C18.6621 7.61732 22.2777 11.2223 22.2777 15.657C22.2777 15.67 22.2779 15.6828 22.2784 15.6957C22.2824 20.6897 22.9978 24.6224 24.405 27.3846C24.5893 27.7463 24.7747 28.0662 24.9568 28.3487H18.4581Z" fill="#ECC8AF"/>
</svg>
