<svg width="24" height="24" viewBox="0 0 24 24" fill="none" xmlns="http://www.w3.org/2000/svg">
<g clip-path="url(#clip0)">
<path d="M22 3.60001H2C0.896 3.60131 0.0013 4.49601 0 5.60001V18.4C0.0013 19.504 0.896 20.3987 2 20.4H22C22.1122 20.4005 22.2243 20.3907 22.3348 20.3708C23.2973 20.2097 24.0019 19.3759 24 18.4V5.60001C23.9987 4.49596 23.104 3.60131 22 3.60001ZM2 19.6C1.37825 19.5999 0.8595 19.125 0.8048 18.5056L8.78 13.2912L16.8904 19.6H2ZM23.2 18.4C23.2007 18.9871 22.7754 19.4881 22.196 19.5828C22.1313 19.5945 22.0657 19.6002 22 19.6H18.1932L12.8936 15.4756L17.6328 11.686L23.2 15.0264V18.4ZM23.2 14.0936L17.806 10.8572C17.6626 10.771 17.4807 10.7831 17.35 10.8876L12.2432 14.9716L9.0452 12.4844C8.91045 12.3797 8.72415 12.372 8.5812 12.4652L0.8 17.5528V5.60001C0.8 4.93726 1.33725 4.40001 2 4.40001H22C22.6628 4.40001 23.2 4.93726 23.2 5.60001V14.0936Z" fill="#495867"/>
<path d="M12 6C10.6745 6 9.60001 7.0745 9.60001 8.4C9.60131 9.72495 10.6751 10.7987 12 10.8C13.3255 10.8 14.4 9.7255 14.4 8.4C14.4 7.0745 13.3255 6 12 6ZM12 10C11.1164 10 10.4 9.28365 10.4 8.4C10.4 7.51635 11.1164 6.8 12 6.8C12.8837 6.8 13.6 7.51635 13.6 8.4C13.6 9.28365 12.8837 10 12 10Z" fill="#495867"/>
</g>
<defs>
<clipPath id="clip0">
<rect width="24" height="24" fill="white"/>
</clipPath>
</defs>
</svg>
