<svg width="15" height="15" viewBox="0 0 15 15" fill="none" xmlns="http://www.w3.org/2000/svg">
<path d="M14.6113 12.781C15.1296 13.2997 15.1296 14.1066 14.6113 14.6254C14.3522 14.8847 14.0355 15 13.69 15C13.3445 15 13.0278 14.8847 12.7687 14.6254L7.5 9.35159L2.23129 14.6254C1.97217 14.8847 1.65547 15 1.30998 15C0.964492 15 0.647793 14.8847 0.388676 14.6254C-0.129559 14.1066 -0.129559 13.2997 0.388676 12.781L5.65739 7.5072L0.388676 2.23343C-0.129559 1.7147 -0.129559 0.907781 0.388676 0.389049C0.90691 -0.129683 1.71305 -0.129683 2.23129 0.389049L7.5 5.66282L12.7687 0.389049C13.2869 -0.129683 14.0931 -0.129683 14.6113 0.389049C15.1296 0.907781 15.1296 1.7147 14.6113 2.23343L9.34261 7.5072L14.6113 12.781Z" fill="#ECC8AF"/>
</svg>
