<svg width="20" height="20" viewBox="0 0 20 20" fill="none" xmlns="http://www.w3.org/2000/svg">
<g clip-path="url(#clip0)">
<path d="M12.8541 20.0005H10.7813C10.0261 20.0005 9.40797 19.4021 9.37629 18.6545L8.20824 11.7922L1.34598 10.6242C0.598399 10.5925 0 9.9744 0 9.21921V7.14635C0 5.59408 1.05305 4.25224 2.56082 3.88326L18.2671 0.0394242C18.2693 0.0388773 18.2714 0.0383695 18.2736 0.0378617C18.7502 -0.0733494 19.2414 0.0668462 19.5875 0.412941C19.9336 0.759035 20.0738 1.25021 19.9626 1.72685C19.9621 1.72904 19.9616 1.73122 19.9611 1.73341L16.1172 17.4397C15.7482 18.9475 14.4064 20.0005 12.8541 20.0005ZM18.5598 1.25466L2.85797 5.09744C1.91121 5.32912 1.25 6.17166 1.25 7.14635V9.21921C1.25 9.30538 1.32008 9.37546 1.40625 9.37546C1.44141 9.37546 1.47648 9.37843 1.51113 9.38432L8.85488 10.6343C9.1166 10.6789 9.3216 10.8839 9.36613 11.1456L10.6161 18.4893C10.622 18.524 10.625 18.5591 10.625 18.5942C10.625 18.6804 10.6951 18.7505 10.7813 18.7505H12.8541C13.8288 18.7505 14.6713 18.0893 14.903 17.1425L18.7458 1.44068C18.761 1.37193 18.7314 1.32454 18.7036 1.29681C18.6759 1.26911 18.6285 1.23947 18.5598 1.25466Z" fill="#495867"/>
<path d="M8.74999 11.875C8.59003 11.875 8.43011 11.814 8.30808 11.6919C8.06397 11.4478 8.06397 11.0521 8.30808 10.808L14.5581 4.55802C14.8022 4.31391 15.1979 4.31391 15.442 4.55802C15.6861 4.80208 15.6861 5.19782 15.442 5.44189L9.19195 11.6919C9.06987 11.814 8.90995 11.875 8.74999 11.875Z" fill="#495867"/>
</g>
<defs>
<clipPath id="clip0">
<rect width="20" height="20" fill="white"/>
</clipPath>
</defs>
</svg>
