<svg width="25" height="25" viewBox="0 0 25 25" fill="none" xmlns="http://www.w3.org/2000/svg">
<path d="M17.7538 15.356C17.5299 15.1554 17.1859 15.175 16.9865 15.3984C15.8528 16.6652 14.218 17.3913 12.5 17.3913C10.7826 17.3913 9.14732 16.6652 8.01362 15.3984C7.81308 15.175 7.47014 15.1554 7.24623 15.356C7.02232 15.556 7.00384 15.8994 7.20384 16.1234C8.54351 17.6201 10.474 18.4783 12.5 18.4783C14.5267 18.4783 16.4571 17.6196 17.7962 16.1234C17.9962 15.8994 17.9772 15.556 17.7538 15.356Z" fill="#495867"/>
<path d="M12.5 0C5.60761 0 0 5.60761 0 12.5C0 19.3924 5.60761 25 12.5 25C19.3924 25 25 19.3924 25 12.5C25 5.60761 19.3924 0 12.5 0ZM12.5 23.913C6.20652 23.913 1.08696 18.7935 1.08696 12.5C1.08696 6.20652 6.20652 1.08696 12.5 1.08696C18.7935 1.08696 23.913 6.20652 23.913 12.5C23.913 18.7935 18.7935 23.913 12.5 23.913Z" fill="#495867"/>
<path d="M16.8478 8.69565C15.3495 8.69565 14.1304 9.91467 14.1304 11.413C14.1304 11.713 14.3739 11.9565 14.6739 11.9565C14.9739 11.9565 15.2174 11.713 15.2174 11.413C15.2174 10.5141 15.9489 9.7826 16.8478 9.7826C17.7467 9.7826 18.4783 10.5141 18.4783 11.413C18.4783 11.713 18.7217 11.9565 19.0217 11.9565C19.3217 11.9565 19.5652 11.713 19.5652 11.413C19.5652 9.91467 18.3462 8.69565 16.8478 8.69565Z" fill="#495867"/>
<path d="M9.78264 11.413C9.78264 11.713 10.0261 11.9565 10.3261 11.9565C10.6261 11.9565 10.8696 11.713 10.8696 11.413C10.8696 9.91467 9.65057 8.69565 8.1522 8.69565C6.65384 8.69565 5.43481 9.91467 5.43481 11.413C5.43481 11.713 5.67829 11.9565 5.97829 11.9565C6.27829 11.9565 6.52177 11.713 6.52177 11.413C6.52177 10.5141 7.25329 9.7826 8.1522 9.7826C9.05112 9.7826 9.78264 10.5141 9.78264 11.413Z" fill="#495867"/>
</svg>
