<svg width="42" height="46" viewBox="0 0 42 46" fill="none" xmlns="http://www.w3.org/2000/svg">
<circle cx="33.6278" cy="37.5382" r="7.82043" fill="#F1F4FF"/>
<rect x="32.3242" y="32.3247" width="2.60681" height="10.4272" rx="1.3034" fill="#495867"/>
<rect x="28.4141" y="38.8408" width="2.60681" height="10.4272" rx="1.3034" transform="rotate(-90 28.4141 38.8408)" fill="#495867"/>
<path d="M19.5509 6.80029C16.2698 6.80029 13.6006 9.46941 13.6006 12.7506C13.6006 16.0319 16.2697 18.701 19.5509 18.701C22.8322 18.701 25.5013 16.0318 25.5013 12.7506C25.5013 9.46949 22.8322 6.80029 19.5509 6.80029ZM19.5509 17.0008C17.2082 17.0008 15.3007 15.0933 15.3007 12.7506C15.3007 10.4079 17.2082 8.50044 19.5509 8.50044C21.8936 8.50044 23.8011 10.4079 23.8011 12.7506C23.8011 15.0933 21.8937 17.0008 19.5509 17.0008Z" fill="#F1F4FF"/>
<path d="M19.5509 20.4014C13.4577 20.4014 8.50024 25.3588 8.50024 31.452C8.50024 31.9212 8.88109 32.3021 9.35032 32.3021C9.81954 32.3021 10.2004 31.9212 10.2004 31.452C10.2004 26.2956 14.3945 22.1015 19.5509 22.1015C24.7072 22.1015 28.9013 26.2956 28.9013 31.452C28.9013 31.9212 29.2822 32.3021 29.7514 32.3021C30.2206 32.3021 30.6015 31.9212 30.6015 31.452C30.6015 25.3588 25.644 20.4014 19.5509 20.4014Z" fill="#F1F4FF"/>
</svg>
