<svg width="40" height="38" viewBox="0 0 40 38" fill="none" xmlns="http://www.w3.org/2000/svg">
<g clip-path="url(#clip0)">
<path d="M28.0479 22.0929L26.413 17.3348C27.201 15.7238 27.6175 13.9322 27.6203 12.1295C27.6251 8.99494 26.4124 6.03119 24.2054 3.7842C21.998 1.53677 19.0566 0.271643 15.9227 0.221997C12.6732 0.170647 9.6188 1.40668 7.32249 3.70294C5.10827 5.91711 3.88015 8.83611 3.84128 11.9554C1.65894 13.5985 0.37084 16.1602 0.375074 18.8965C0.377108 20.177 0.665308 21.4498 1.21141 22.6008L0.0852794 25.8779C-0.108302 26.4413 0.0331044 27.053 0.454353 27.4743C0.7508 27.7708 1.14165 27.9286 1.5436 27.9286C1.71271 27.9286 1.88381 27.9007 2.05067 27.8433L5.32791 26.7172C6.4789 27.2633 7.75172 27.5515 9.03218 27.5535C9.03679 27.5535 9.04119 27.5535 9.04581 27.5535C11.8228 27.5534 14.4041 26.2321 16.0412 23.9963C17.7448 23.9514 19.4304 23.539 20.9543 22.7936L25.7124 24.4285C25.9106 24.4967 26.1139 24.5299 26.3149 24.5299C26.7925 24.5299 27.257 24.3423 27.6094 23.9899C28.1099 23.4893 28.2779 22.7624 28.0479 22.0929ZM9.0457 25.878C9.04213 25.878 9.03833 25.878 9.03476 25.878C7.90142 25.8763 6.77595 25.5969 5.78022 25.0701C5.57548 24.9618 5.33511 24.9431 5.11619 25.0183L1.75571 26.173L2.91043 22.8126C2.98564 22.5936 2.96695 22.3532 2.85864 22.1486C2.33183 21.1528 2.05243 20.0274 2.05067 18.894C2.04786 17.0709 2.75704 15.343 3.9972 14.0491C4.40229 16.5185 5.57922 18.7941 7.40353 20.586C9.21438 22.3646 11.4906 23.4971 13.9466 23.8673C12.6498 25.1455 10.9017 25.878 9.0457 25.878ZM26.4245 22.8051C26.3768 22.8527 26.3203 22.8657 26.2567 22.8438L21.163 21.0935C21.0746 21.0631 20.9825 21.048 20.8908 21.048C20.7556 21.048 20.6209 21.0808 20.499 21.1453C19.0447 21.9147 17.4012 22.3227 15.7463 22.3253C15.7408 22.3253 15.7359 22.3253 15.7304 22.3253C10.1851 22.3253 5.60462 17.8206 5.51676 12.2766C5.47251 9.48447 6.53459 6.86038 8.50729 4.88768C10.48 2.91498 13.1045 1.85328 15.8962 1.89726C21.4456 1.98528 25.9533 6.57422 25.9448 12.1268C25.9422 13.7818 25.5342 15.4253 24.7649 16.8795C24.6565 17.0842 24.6379 17.3246 24.7131 17.5436L26.4633 22.6373C26.4851 22.701 26.4721 22.7575 26.4245 22.8051Z" fill="#F1F4FF"/>
<path d="M20.7211 7.67041H10.7391C10.2764 7.67041 9.90137 8.04553 9.90137 8.50818C9.90137 8.97088 10.2765 9.34595 10.7391 9.34595H20.7211C21.1838 9.34595 21.5589 8.97083 21.5589 8.50818C21.5589 8.04553 21.1838 7.67041 20.7211 7.67041Z" fill="#F1F4FF"/>
<path d="M20.7211 11.1157H10.7391C10.2764 11.1157 9.90137 11.4908 9.90137 11.9535C9.90137 12.4161 10.2765 12.7913 10.7391 12.7913H20.7211C21.1838 12.7913 21.5589 12.4161 21.5589 11.9535C21.5589 11.4908 21.1838 11.1157 20.7211 11.1157Z" fill="#F1F4FF"/>
<path d="M16.8788 14.5613H10.7391C10.2764 14.5613 9.90137 14.9364 9.90137 15.399C9.90137 15.8618 10.2765 16.2368 10.7391 16.2368H16.8788C17.3415 16.2368 17.7165 15.8617 17.7165 15.399C17.7165 14.9364 17.3415 14.5613 16.8788 14.5613Z" fill="#F1F4FF"/>
</g>
<circle cx="31.8366" cy="29.5849" r="8.16327" fill="#F1F4FF"/>
<rect x="30.4761" y="24.1426" width="2.72109" height="10.8844" rx="1.36054" fill="#495867"/>
<rect x="26.3945" y="30.9456" width="2.72109" height="10.8844" rx="1.36054" transform="rotate(-90 26.3945 30.9456)" fill="#495867"/>
<defs>
<clipPath id="clip0">
<rect width="28.1492" height="28.1492" fill="white"/>
</clipPath>
</defs>
</svg>
