<svg width="40" height="40" viewBox="0 0 40 40" fill="none" xmlns="http://www.w3.org/2000/svg">
<g clip-path="url(#clip0)">
<path d="M39.856 31.3942L37.5328 24.633C38.6527 22.3438 39.2445 19.7978 39.2484 17.2362C39.2553 12.782 37.532 8.57052 34.3959 5.37755C31.2592 2.18395 27.0794 0.386209 22.6262 0.315662C18.0086 0.242693 13.6683 1.9991 10.4053 5.26208C7.25885 8.40841 5.51369 12.5563 5.45846 16.9888C2.35736 19.3237 0.526964 22.9639 0.53298 26.8521C0.53587 28.6717 0.945403 30.4803 1.72142 32.1159L0.121182 36.7728C-0.153897 37.5733 0.0470413 38.4425 0.645636 39.0411C1.06689 39.4625 1.62228 39.6868 2.19345 39.6868C2.43376 39.6868 2.67689 39.6471 2.914 39.5656L7.57096 37.9653C9.20651 38.7414 11.0152 39.1509 12.8347 39.1538C12.8413 39.1538 12.8475 39.1538 12.8541 39.1538C16.8002 39.1536 20.4682 37.276 22.7945 34.0989C25.2154 34.0352 27.6106 33.4492 29.776 32.3899L36.5373 34.7132C36.819 34.8099 37.1079 34.8571 37.3934 34.8571C38.0722 34.8571 38.7322 34.5906 39.2329 34.0898C39.9442 33.3785 40.1829 32.3456 39.856 31.3942ZM12.8539 36.7728C12.8489 36.7728 12.8435 36.7728 12.8384 36.7728C11.2279 36.7704 9.62862 36.3734 8.2137 35.6248C7.92276 35.471 7.5812 35.4443 7.2701 35.5512L2.49486 37.1921L4.13572 32.4169C4.2426 32.1057 4.21603 31.7642 4.06213 31.4733C3.31353 30.0583 2.9165 28.4591 2.914 26.8485C2.91002 24.258 3.91775 21.8026 5.68002 19.964C6.25565 23.4731 7.92807 26.7067 10.5204 29.2529C13.0936 31.7803 16.3282 33.3896 19.8182 33.9157C17.9754 35.732 15.4913 36.7728 12.8539 36.7728ZM37.5491 32.4062C37.4814 32.4739 37.4011 32.4924 37.3108 32.4613L30.0726 29.9741C29.9469 29.9309 29.8162 29.9095 29.6859 29.9095C29.4937 29.9095 29.3023 29.956 29.1291 30.0477C27.0625 31.141 24.7272 31.7208 22.3754 31.7244C22.3677 31.7244 22.3607 31.7244 22.3529 31.7244C14.473 31.7244 7.96417 25.3233 7.83932 17.4452C7.77643 13.4776 9.28565 9.74881 12.0889 6.9456C14.8921 4.14239 18.6215 2.63371 22.5886 2.69621C30.4742 2.82129 36.8797 9.34216 36.8675 17.2324C36.8638 19.5841 36.2841 21.9195 35.1909 23.986C35.037 24.2769 35.0104 24.6184 35.1173 24.9296L37.6044 32.1678C37.6354 32.2584 37.6168 32.3386 37.5491 32.4062Z" fill="#101820"/>
<path d="M29.4447 10.8994H15.2603C14.6028 10.8994 14.0698 11.4325 14.0698 12.0899C14.0698 12.7474 14.6029 13.2804 15.2603 13.2804H29.4447C30.1022 13.2804 30.6352 12.7473 30.6352 12.0899C30.6352 11.4325 30.1022 10.8994 29.4447 10.8994Z" fill="#101820"/>
<path d="M29.4447 15.7954H15.2603C14.6028 15.7954 14.0698 16.3285 14.0698 16.9859C14.0698 17.6433 14.6029 18.1764 15.2603 18.1764H29.4447C30.1022 18.1764 30.6352 17.6433 30.6352 16.9859C30.6352 16.3285 30.1022 15.7954 29.4447 15.7954Z" fill="#101820"/>
<path d="M23.9848 20.6917H15.2603C14.6028 20.6917 14.0698 21.2247 14.0698 21.8821C14.0698 22.5396 14.6029 23.0726 15.2603 23.0726H23.9847C24.6422 23.0726 25.1752 22.5395 25.1752 21.8821C25.1752 21.2247 24.6423 20.6917 23.9848 20.6917Z" fill="#101820"/>
</g>
<defs>
<clipPath id="clip0">
<rect width="40" height="40" fill="white"/>
</clipPath>
</defs>
</svg>
