<svg width="27" height="18" viewBox="0 0 27 18" fill="none" xmlns="http://www.w3.org/2000/svg">
<g opacity="0.5">
<path d="M26.8346 9.50641C26.6021 9.82457 21.0604 17.2968 13.9827 17.2968C6.90502 17.2968 1.36311 9.82457 1.13078 9.50672C0.910507 9.20488 0.910507 8.7955 1.13078 8.49366C1.36311 8.1755 6.90502 0.70332 13.9827 0.70332C21.0604 0.70332 26.6021 8.17555 26.8346 8.4934C27.0552 8.79519 27.0552 9.20488 26.8346 9.50641ZM13.9827 2.41987C8.76924 2.41987 4.25381 7.37931 2.91715 9.00062C4.25209 10.6234 8.75805 15.5802 13.9827 15.5802C19.1959 15.5802 23.7111 10.6216 25.0483 8.99945C23.7133 7.37677 19.2074 2.41987 13.9827 2.41987Z" fill="#B2BFCD"/>
<path d="M13.983 14.1498C11.1435 14.1498 8.83325 11.8396 8.83325 9.00007C8.83325 6.16057 11.1435 3.85036 13.983 3.85036C16.8225 3.85036 19.1327 6.16057 19.1327 9.00007C19.1327 11.8396 16.8225 14.1498 13.983 14.1498ZM13.983 5.56696C12.0899 5.56696 10.5499 7.10702 10.5499 9.00007C10.5499 10.8931 12.0899 12.4332 13.983 12.4332C15.876 12.4332 17.4161 10.8931 17.4161 9.00007C17.4161 7.10702 15.8761 5.56696 13.983 5.56696Z" fill="#B2BFCD"/>
</g>
</svg>
