<svg width="30" height="30" viewBox="0 0 30 30" fill="none" xmlns="http://www.w3.org/2000/svg">
<path d="M28.125 5.625H7.5C6.46447 5.625 5.625 6.46447 5.625 7.5V28.125C5.625 29.1605 6.46447 30 7.5 30H28.125C29.1605 30 30 29.1605 30 28.125V7.5C30 6.46447 29.1605 5.625 28.125 5.625ZM28.125 28.125H7.5V7.5H28.125V28.125Z" fill="#F1F4FF"/>
<path d="M1.875 1.875H22.5V3.75H24.375V1.875C24.375 0.839473 23.5355 0 22.5 0H1.875C0.839473 0 0 0.839473 0 1.875V22.5C0 23.5355 0.839473 24.375 1.875 24.375H3.75V22.5H1.875V1.875Z" fill="#F1F4FF"/>
<path d="M10.3125 23.4377H25.3125C25.8303 23.4407 26.2524 23.0234 26.2555 22.5056C26.2569 22.2537 26.157 22.0119 25.9781 21.8346L22.2281 18.0846C21.8625 17.721 21.272 17.721 20.9063 18.0846L19.6875 19.3033L16.6031 16.2189C16.2375 15.8554 15.6469 15.8554 15.2813 16.2189L9.65627 21.8439C9.29381 22.2137 9.29961 22.8072 9.66933 23.1697C9.84136 23.3383 10.0716 23.4343 10.3125 23.4377Z" fill="#F1F4FF"/>
<path d="M22.5 15.9375C23.5355 15.9375 24.375 15.098 24.375 14.0625C24.375 13.027 23.5355 12.1875 22.5 12.1875C21.4645 12.1875 20.625 13.027 20.625 14.0625C20.625 15.098 21.4645 15.9375 22.5 15.9375Z" fill="#F1F4FF"/>
</svg>
