<svg width="40" height="40" viewBox="0 0 40 40" fill="none" xmlns="http://www.w3.org/2000/svg">
<g clip-path="url(#clip0)">
<path d="M19.9998 6.95654C16.6433 6.95654 13.9128 9.68695 13.9128 13.0435C13.9128 16.4001 16.6432 19.1305 19.9998 19.1305C23.3564 19.1305 26.0868 16.4 26.0868 13.0435C26.0868 9.68703 23.3564 6.95654 19.9998 6.95654ZM19.9998 17.3913C17.6033 17.3913 15.652 15.44 15.652 13.0435C15.652 10.647 17.6033 8.69573 19.9998 8.69573C22.3963 8.69573 24.3476 10.647 24.3476 13.0435C24.3476 15.44 22.3964 17.3913 19.9998 17.3913Z" fill="#F1F4FF"/>
<path d="M32.174 13.9131C29.7775 13.9131 27.8262 15.8644 27.8262 18.2609C27.8262 20.6574 29.7775 22.6087 32.174 22.6087C34.5705 22.6087 36.5218 20.6574 36.5218 18.2609C36.5218 15.8644 34.5705 13.9131 32.174 13.9131ZM32.174 20.8696C30.7357 20.8696 29.5653 19.6992 29.5653 18.2609C29.5653 16.8226 30.7357 15.6522 32.174 15.6522C33.6123 15.6522 34.7827 16.8226 34.7827 18.2609C34.7827 19.6992 33.6122 20.8696 32.174 20.8696Z" fill="#F1F4FF"/>
<path d="M7.9496 13.9131C5.55132 13.9131 3.60181 15.8644 3.60181 18.2609C3.60181 20.6574 5.55311 22.6087 7.9496 22.6087C10.3461 22.6087 12.2974 20.6574 12.2974 18.2609C12.2974 15.8644 10.3478 13.9131 7.9496 13.9131ZM7.9496 20.8696C6.51132 20.8696 5.34091 19.6992 5.34091 18.2609C5.34091 16.8226 6.51132 15.6522 7.9496 15.6522C9.38789 15.6522 10.5583 16.8226 10.5583 18.2609C10.5583 19.6992 9.38781 20.8696 7.9496 20.8696Z" fill="#F1F4FF"/>
<path d="M19.9999 20.8696C13.7669 20.8696 8.69556 25.9409 8.69556 32.174C8.69556 32.654 9.08515 33.0436 9.56515 33.0436C10.0451 33.0436 10.4347 32.654 10.4347 32.174C10.4347 26.8992 14.7251 22.6088 19.9999 22.6088C25.2747 22.6088 29.5651 26.8992 29.5651 32.174C29.5651 32.654 29.9547 33.0436 30.4347 33.0436C30.9147 33.0436 31.3043 32.654 31.3043 32.174C31.3043 25.9409 26.233 20.8696 19.9999 20.8696Z" fill="#F1F4FF"/>
<path d="M32.1739 24.3477C30.7426 24.3477 29.3409 24.739 28.12 25.4781C27.7114 25.7286 27.5791 26.2624 27.8278 26.6729C28.08 27.0834 28.6122 27.2138 29.0226 26.9651C29.9704 26.3894 31.0591 26.0868 32.1739 26.0868C35.5304 26.0868 38.2609 28.8172 38.2609 32.1737C38.2609 32.6537 38.6505 33.0433 39.1305 33.0433C39.6105 33.0433 40.0001 32.6537 40.0001 32.1737C40 27.859 36.4887 24.3477 32.1739 24.3477Z" fill="#F1F4FF"/>
<path d="M11.8783 25.4763C10.6591 24.739 9.25744 24.3477 7.82608 24.3477C3.5113 24.3477 0 27.859 0 32.1737C0 32.6537 0.389592 33.0433 0.869592 33.0433C1.34959 33.0433 1.73918 32.6537 1.73918 32.1737C1.7391 28.8172 4.46959 26.0868 7.82608 26.0868C8.94089 26.0868 10.0295 26.3894 10.9757 26.9633C11.3843 27.212 11.92 27.0816 12.1705 26.6711C12.4209 26.2606 12.2887 25.7268 11.8783 25.4763Z" fill="#F1F4FF"/>
</g>
<defs>
<clipPath id="clip0">
<rect width="40" height="40" fill="white"/>
</clipPath>
</defs>
</svg>
