<svg width="112" height="107" viewBox="0 0 112 107" fill="none" xmlns="http://www.w3.org/2000/svg">
<path d="M11.4844 105H9.45312V99.3984C9.45312 99.1328 9.38542 98.9323 9.25 98.7969C9.11458 98.6562 8.91146 98.5859 8.64062 98.5859H4.97656V96.5547H8.64062C8.83333 96.5547 9.03646 96.5781 9.25 96.625C9.46354 96.6667 9.67448 96.7344 9.88281 96.8281C10.0964 96.9219 10.2995 97.0443 10.4922 97.1953C10.6849 97.3411 10.8542 97.5208 11 97.7344C11.1458 97.9427 11.263 98.1849 11.3516 98.4609C11.4401 98.737 11.4844 99.0495 11.4844 99.3984V105ZM4.15625 105H2.125V92.9844H4.15625V105ZM26.0625 102.203C26.0625 102.484 26.013 102.789 25.9141 103.117C25.8151 103.44 25.6536 103.742 25.4297 104.023C25.2109 104.299 24.9219 104.531 24.5625 104.719C24.2083 104.906 23.776 105 23.2656 105H19.6016C19.3203 105 19.0156 104.951 18.6875 104.852C18.3646 104.753 18.0625 104.594 17.7812 104.375C17.5052 104.151 17.2734 103.862 17.0859 103.508C16.8984 103.148 16.8047 102.714 16.8047 102.203C16.8047 101.922 16.8542 101.617 16.9531 101.289C17.0521 100.961 17.2109 100.659 17.4297 100.383C17.6536 100.102 17.9427 99.8672 18.2969 99.6797C18.6562 99.4922 19.0911 99.3984 19.6016 99.3984H23.2656V101.336H19.6016C19.3255 101.336 19.112 101.422 18.9609 101.594C18.8099 101.76 18.7344 101.969 18.7344 102.219C18.7344 102.484 18.8203 102.693 18.9922 102.844C19.1693 102.99 19.3776 103.062 19.6172 103.062H23.2656C23.5417 103.062 23.7552 102.979 23.9062 102.812C24.0573 102.646 24.1328 102.438 24.1328 102.188V99.3516C24.1328 99.0859 24.0495 98.875 23.8828 98.7188C23.7214 98.5625 23.5156 98.4844 23.2656 98.4844H18.8047V96.5547H23.2656C23.5469 96.5547 23.849 96.6042 24.1719 96.7031C24.5 96.8021 24.8021 96.9635 25.0781 97.1875C25.3594 97.4062 25.5938 97.6953 25.7812 98.0547C25.9688 98.4089 26.0625 98.8411 26.0625 99.3516V102.203ZM41.1094 102.148C41.1094 102.341 41.0859 102.544 41.0391 102.758C40.9974 102.971 40.9297 103.185 40.8359 103.398C40.7422 103.607 40.6198 103.807 40.4688 104C40.3229 104.193 40.1432 104.365 39.9297 104.516C39.7214 104.661 39.4792 104.779 39.2031 104.867C38.9271 104.956 38.6146 105 38.2656 105H34.6016C34.4089 105 34.2057 104.979 33.9922 104.938C33.7786 104.891 33.5651 104.82 33.3516 104.727C33.1432 104.633 32.9427 104.513 32.75 104.367C32.5573 104.216 32.3854 104.036 32.2344 103.828C32.0885 103.615 31.9714 103.37 31.8828 103.094C31.7943 102.812 31.75 102.497 31.75 102.148V92.9844H33.7812V102.148C33.7812 102.398 33.8594 102.599 34.0156 102.75C34.1719 102.896 34.3672 102.969 34.6016 102.969H38.2656C38.5208 102.969 38.7188 102.893 38.8594 102.742C39.0052 102.591 39.0781 102.393 39.0781 102.148V99.3984C39.0781 99.1432 39.0026 98.9453 38.8516 98.8047C38.7005 98.6589 38.5052 98.5859 38.2656 98.5859H34.6016V96.5547H38.2656C38.4583 96.5547 38.6615 96.5781 38.875 96.625C39.0885 96.6667 39.2995 96.7344 39.5078 96.8281C39.7214 96.9219 39.9245 97.0443 40.1172 97.1953C40.3099 97.3411 40.4792 97.5208 40.625 97.7344C40.7708 97.9427 40.888 98.1849 40.9766 98.4609C41.0651 98.737 41.1094 99.0495 41.1094 99.3984V102.148ZM50.5547 105H49.6484C49.3568 105 49.0443 104.951 48.7109 104.852C48.3828 104.753 48.0755 104.591 47.7891 104.367C47.5026 104.138 47.2656 103.844 47.0781 103.484C46.8906 103.12 46.7969 102.674 46.7969 102.148V92.9844H48.8281V102.148C48.8281 102.398 48.9062 102.599 49.0625 102.75C49.2188 102.896 49.4141 102.969 49.6484 102.969H50.5547V105ZM64.5781 102.203C64.5781 102.484 64.5286 102.789 64.4297 103.117C64.3307 103.44 64.1693 103.742 63.9453 104.023C63.7266 104.299 63.4375 104.531 63.0781 104.719C62.724 104.906 62.2917 105 61.7812 105H58.1172C57.8359 105 57.5312 104.951 57.2031 104.852C56.8802 104.753 56.5781 104.594 56.2969 104.375C56.0208 104.151 55.7891 103.862 55.6016 103.508C55.4141 103.148 55.3203 102.714 55.3203 102.203C55.3203 101.922 55.3698 101.617 55.4688 101.289C55.5677 100.961 55.7266 100.659 55.9453 100.383C56.1693 100.102 56.4583 99.8672 56.8125 99.6797C57.1719 99.4922 57.6068 99.3984 58.1172 99.3984H61.7812V101.336H58.1172C57.8411 101.336 57.6276 101.422 57.4766 101.594C57.3255 101.76 57.25 101.969 57.25 102.219C57.25 102.484 57.3359 102.693 57.5078 102.844C57.6849 102.99 57.8932 103.062 58.1328 103.062H61.7812C62.0573 103.062 62.2708 102.979 62.4219 102.812C62.5729 102.646 62.6484 102.438 62.6484 102.188V99.3516C62.6484 99.0859 62.5651 98.875 62.3984 98.7188C62.237 98.5625 62.0312 98.4844 61.7812 98.4844H57.3203V96.5547H61.7812C62.0625 96.5547 62.3646 96.6042 62.6875 96.7031C63.0156 96.8021 63.3177 96.9635 63.5938 97.1875C63.875 97.4062 64.1094 97.6953 64.2969 98.0547C64.4844 98.4089 64.5781 98.8411 64.5781 99.3516V102.203ZM77.8516 105H75.8203V99.3984C75.8203 99.1328 75.75 98.9323 75.6094 98.7969C75.4688 98.6562 75.2604 98.5859 74.9844 98.5859H72.3438V105H70.3125V97.5625C70.3125 97.4219 70.3385 97.2917 70.3906 97.1719C70.4427 97.0469 70.5156 96.9401 70.6094 96.8516C70.7031 96.7578 70.8125 96.6849 70.9375 96.6328C71.0625 96.5807 71.1953 96.5547 71.3359 96.5547H75C75.2812 96.5547 75.5833 96.6042 75.9062 96.7031C76.2292 96.8021 76.5365 96.9609 76.8281 97.1797V96.5547H79.5781C79.7708 96.5547 79.974 96.5781 80.1875 96.625C80.401 96.6667 80.612 96.7344 80.8203 96.8281C81.0339 96.9219 81.237 97.0443 81.4297 97.1953C81.6224 97.3411 81.7917 97.5208 81.9375 97.7344C82.0833 97.9427 82.2005 98.1849 82.2891 98.4609C82.3776 98.737 82.4219 99.0495 82.4219 99.3984V105H80.3906V99.3984C80.3906 99.1328 80.3229 98.9323 80.1875 98.7969C80.0573 98.6562 79.8542 98.5859 79.5781 98.5859H77.75C77.8177 98.8359 77.8516 99.1068 77.8516 99.3984V105ZM97.4844 102.148C97.4844 102.497 97.4401 102.812 97.3516 103.094C97.263 103.37 97.1458 103.615 97 103.828C96.8542 104.036 96.6849 104.216 96.4922 104.367C96.2995 104.513 96.0964 104.633 95.8828 104.727C95.6745 104.82 95.4609 104.891 95.2422 104.938C95.0286 104.979 94.8255 105 94.6328 105H90.9688C90.6875 105 90.3802 104.951 90.0469 104.852C89.7135 104.753 89.4036 104.591 89.1172 104.367C88.8359 104.138 88.599 103.844 88.4062 103.484C88.2188 103.12 88.125 102.674 88.125 102.148V99.3984C88.125 98.8776 88.2188 98.4375 88.4062 98.0781C88.599 97.7135 88.8359 97.4193 89.1172 97.1953C89.4036 96.9661 89.7135 96.8021 90.0469 96.7031C90.3802 96.6042 90.6875 96.5547 90.9688 96.5547H94.6328C95.1536 96.5547 95.5964 96.6484 95.9609 96.8359C96.3255 97.0234 96.6198 97.2604 96.8438 97.5469C97.0677 97.8281 97.2292 98.1354 97.3281 98.4688C97.4323 98.8021 97.4844 99.112 97.4844 99.3984V102.148ZM95.4531 99.4141C95.4531 99.1328 95.3828 98.9245 95.2422 98.7891C95.1016 98.6536 94.8984 98.5859 94.6328 98.5859H90.9844C90.7135 98.5859 90.5078 98.6562 90.3672 98.7969C90.2266 98.9323 90.1562 99.1328 90.1562 99.3984V102.148C90.1562 102.414 90.2266 102.617 90.3672 102.758C90.5078 102.898 90.7135 102.969 90.9844 102.969H94.6328C94.9089 102.969 95.1146 102.898 95.25 102.758C95.3854 102.617 95.4531 102.414 95.4531 102.148V99.4141ZM111.383 102.148C111.383 102.497 111.339 102.812 111.25 103.094C111.161 103.37 111.044 103.615 110.898 103.828C110.753 104.036 110.583 104.216 110.391 104.367C110.198 104.513 109.995 104.633 109.781 104.727C109.573 104.82 109.359 104.891 109.141 104.938C108.927 104.979 108.724 105 108.531 105H103.031V102.969H108.516C108.792 102.969 109 102.898 109.141 102.758C109.281 102.617 109.352 102.414 109.352 102.148C109.326 101.607 109.052 101.336 108.531 101.336H105.383C104.935 101.336 104.555 101.258 104.242 101.102C103.93 100.945 103.674 100.75 103.477 100.516C103.284 100.281 103.143 100.029 103.055 99.7578C102.971 99.487 102.93 99.2344 102.93 99C102.93 98.5469 103.01 98.1667 103.172 97.8594C103.333 97.5469 103.536 97.2943 103.781 97.1016C104.026 96.9089 104.292 96.7708 104.578 96.6875C104.865 96.599 105.133 96.5547 105.383 96.5547H110.375V98.5859H105.398C105.294 98.5859 105.211 98.599 105.148 98.625C105.091 98.6458 105.047 98.6771 105.016 98.7188C104.99 98.7552 104.974 98.7969 104.969 98.8438C104.964 98.8854 104.961 98.9271 104.961 98.9688C104.966 99.0521 104.982 99.1172 105.008 99.1641C105.034 99.2109 105.065 99.2448 105.102 99.2656C105.143 99.2865 105.188 99.2995 105.234 99.3047C105.286 99.3047 105.336 99.3047 105.383 99.3047H108.531C109.052 99.3047 109.495 99.3984 109.859 99.5859C110.224 99.7734 110.518 100.01 110.742 100.297C110.966 100.578 111.128 100.885 111.227 101.219C111.331 101.552 111.383 101.862 111.383 102.148Z" fill="#B2BFCD"/>
<path d="M1.5 97L1.5 99L3.17865e-08 99L9.73536e-08 97.5C1.09424e-07 97.2239 0.223858 97 0.5 97L1.5 97Z" fill="#B2BFCD"/>
<path d="M86 69.4999C86 74.4704 81.9706 78.4999 77 78.4999L71 78.4999L71 28.4999L77 28.4999C81.9706 28.4999 86 32.5293 86 37.4999L86 69.4999Z" fill="#B2BFCD"/>
<path d="M71 28.5C79.2843 28.5 86 35.2157 86 43.5L54 43.5L54 28.5L71 28.5Z" fill="#B2BFCD"/>
<path d="M32 28.5L32 43.5L24 43.5L24 32.5C24 30.2909 25.7909 28.5 28 28.5L32 28.5Z" fill="#B2BFCD"/>
<path d="M35.5 9C35.5 4.02943 39.5294 0 44.5 0H50.5V78.5H44.5C39.5294 78.5 35.5 74.4706 35.5 69.5V9Z" fill="#B2BFCD"/>
</svg>
