<svg width="73" height="79" viewBox="0 0 73 79" fill="none" xmlns="http://www.w3.org/2000/svg">
<path d="M68 69.5C68 74.4706 63.9706 78.5 59 78.5L53 78.5L53 28.5L59 28.5C63.9706 28.5 68 32.5294 68 37.5L68 69.5Z" fill="#B2BFCD"/>
<path d="M59 28.5C63.9706 28.5 68 32.5294 68 37.5L68 43.5L36 43.5L36 28.5L59 28.5Z" fill="#B2BFCD"/>
<path d="M14 28.5L14 43.5L6 43.5L6 32.5C6 30.2909 7.79086 28.5 10 28.5L14 28.5Z" fill="#B2BFCD"/>
<path d="M17.5 9C17.5 4.02944 21.5294 0 26.5 0H32.5V78.5H26.5C21.5294 78.5 17.5 74.4706 17.5 69.5V9Z" fill="#B2BFCD"/>
</svg>
