<svg width="40" height="40" viewBox="0 0 40 40" fill="none" xmlns="http://www.w3.org/2000/svg">
<g clip-path="url(#clip0)">
<path d="M28.2812 30.625V33.75C28.2812 37.1964 25.4776 40 22.0312 40H6.32812C2.88177 40 0.078125 37.1964 0.078125 33.75V6.25C0.078125 2.80365 2.88177 0 6.32812 0H22.0312C25.4776 0 28.2812 2.80365 28.2812 6.25V9.375C28.2812 10.238 27.5818 10.9375 26.7188 10.9375C25.8557 10.9375 25.1562 10.238 25.1562 9.375V6.25C25.1562 4.52698 23.7543 3.125 22.0312 3.125H6.32812C4.6051 3.125 3.20312 4.52698 3.20312 6.25V33.75C3.20312 35.473 4.6051 36.875 6.32812 36.875H22.0312C23.7543 36.875 25.1562 35.473 25.1562 33.75V30.625C25.1562 29.762 25.8557 29.0625 26.7188 29.0625C27.5818 29.0625 28.2812 29.762 28.2812 30.625ZM38.934 17.316L35.4352 13.8171C34.8248 13.2068 33.8354 13.2068 33.2254 13.8171C32.6151 14.4272 32.6151 15.4166 33.2254 16.0266L35.7141 18.5156H16.9531C16.0901 18.5156 15.3906 19.2151 15.3906 20.0781C15.3906 20.9412 16.0901 21.6406 16.9531 21.6406H35.7141L33.2254 24.1296C32.6151 24.7397 32.6151 25.7291 33.2254 26.3391C33.5306 26.6443 33.9304 26.7969 34.3301 26.7969C34.7302 26.7969 35.13 26.6443 35.4352 26.3391L38.934 22.8403C40.4572 21.3171 40.4572 18.8391 38.934 17.316Z" fill="#F1F4FF"/>
</g>
<defs>
<clipPath id="clip0">
<rect width="40" height="40" fill="white"/>
</clipPath>
</defs>
</svg>
