<svg width="30" height="30" viewBox="0 0 30 30" fill="none" xmlns="http://www.w3.org/2000/svg">
<g clip-path="url(#clip0)">
<path d="M29.8179 15.5602L26.8979 9.15852C26.2563 7.75778 24.8581 6.85872 23.3176 6.85645H21.458C21.0564 6.85645 20.7304 7.18219 20.7304 7.58411C20.7304 7.98602 21.0564 8.31177 21.458 8.31177H23.3178C24.2885 8.31347 25.1694 8.87997 25.5736 9.76254L28.1056 15.3144H21.628C21.3443 15.3144 21.0863 15.4795 20.9674 15.7373L19.7128 18.4552C19.3063 19.3324 18.4283 19.8941 17.4616 19.8961H12.4032C11.4365 19.8941 10.5588 19.3321 10.152 18.4552L8.89765 15.7373C8.77855 15.4795 8.52074 15.3144 8.23678 15.3144H1.98657L5.05412 9.61644C5.48588 8.8126 6.32468 8.31148 7.2371 8.31205H8.54149C8.94341 8.31205 9.26915 7.98631 9.26915 7.58439C9.26915 7.18247 8.94341 6.85673 8.54149 6.85673H7.23738C5.78917 6.85559 4.45778 7.6509 3.77275 8.92658L0.225689 15.515C0.0812942 15.6523 -0.000283502 15.8428 7.40314e-07 16.0417C7.40314e-07 16.0545 7.40305e-07 16.0673 0.00113771 16.0798C0.000284983 16.0923 7.40314e-07 16.1051 7.40314e-07 16.1176V22.8604C0.00341165 25.9177 2.48115 28.3955 5.53847 28.3989H24.4613C27.5189 28.3955 29.9967 25.9177 30.0001 22.8601V16.1176C30.0001 16.1051 30.0001 16.0926 29.999 16.0798C29.9995 16.0673 30.0001 16.0545 30.0001 16.0417C30.0004 15.8644 29.9356 15.6933 29.8179 15.5602V15.5602ZM28.5445 22.8601C28.5422 25.1142 26.7154 26.941 24.4613 26.9436H5.53847C3.28442 26.941 1.45788 25.1145 1.45532 22.8601V16.7697H7.77148L8.83085 19.0649C9.47636 20.4566 10.8697 21.348 12.4038 21.3508H17.4619C18.9959 21.348 20.3893 20.4566 21.0348 19.0649L22.0942 16.7697H28.5453V22.8601H28.5445Z" fill="#F1F4FF"/>
<path d="M10.5564 10.529L14.5423 13.7531C14.8109 13.9706 15.1952 13.9692 15.4618 13.7497L19.3852 10.5256C19.6956 10.2703 19.7405 9.81182 19.4853 9.50115C19.23 9.19075 18.7716 9.14584 18.4609 9.40109L15.7276 11.6477V2.34875C15.7276 1.94684 15.4019 1.62109 15 1.62109C14.598 1.62109 14.2723 1.94684 14.2723 2.34875V11.6628L11.4717 9.3974C11.159 9.1484 10.7042 9.19814 10.4526 9.50882C10.2014 9.81978 10.2477 10.2751 10.5564 10.5287V10.529Z" fill="#F1F4FF"/>
</g>
<defs>
<clipPath id="clip0">
<rect width="30" height="30" fill="white"/>
</clipPath>
</defs>
</svg>
