<svg width="44" height="44" viewBox="0 0 44 44" fill="none" xmlns="http://www.w3.org/2000/svg">
<rect width="44" height="44" rx="10" fill="#101820"/>
<g clip-path="url(#clip0)">
<path d="M14.3149 32.9235L12.4901 31.0987C11.8253 30.4339 11.808 29.363 12.4382 28.677L17.451 21.6076L12.4382 14.5383C11.808 13.8523 11.8253 12.7814 12.4901 12.1165L14.3149 10.2917C15.6815 8.92523 17.7898 8.671 19.4419 9.67351L36.6525 20.1164C36.6549 20.1178 36.6573 20.1193 36.6597 20.1208C37.1771 20.4424 37.4861 20.9983 37.4861 21.6076C37.4861 22.2169 37.1771 22.7728 36.6597 23.0945C36.6573 23.096 36.6549 23.0975 36.6525 23.0989L19.4419 33.5418C17.7897 34.5443 15.6814 34.2901 14.3149 32.9235ZM35.8404 21.4439L18.6346 11.004C17.5972 10.3745 16.2734 10.5341 15.4154 11.3922L13.5906 13.217C13.5147 13.2928 13.5147 13.4162 13.5906 13.4921C13.6215 13.523 13.6498 13.5565 13.6751 13.5922L19.0396 21.1576C19.2308 21.4272 19.2308 21.7881 19.0396 22.0577L13.6751 29.6231C13.6498 29.6588 13.6215 29.6923 13.5905 29.7232C13.5147 29.7991 13.5147 29.9225 13.5905 29.9983L15.4153 31.8231C16.2734 32.6812 17.5972 32.8408 18.6346 32.2113L35.8404 21.7714C35.9143 21.7243 35.9299 21.6565 35.9299 21.6076C35.9299 21.5588 35.9142 21.491 35.8404 21.4439Z" fill="#B2BFCD"/>
<path d="M17.8556 22.1566C17.7148 22.0158 17.6277 21.8213 17.6278 21.6064C17.6277 21.1767 17.9761 20.8283 18.4059 20.8283L29.4101 20.8283C29.8398 20.8283 30.1882 21.1767 30.1881 21.6064C30.1882 22.0362 29.8398 22.3846 29.41 22.3845L18.4059 22.3845C18.1909 22.3845 17.9964 22.2975 17.8556 22.1566Z" fill="#B2BFCD"/>
</g>
<defs>
<clipPath id="clip0">
<rect width="24.8996" height="24.8996" fill="white" transform="translate(20.6067 4) rotate(45)"/>
</clipPath>
</defs>
</svg>
