<svg width="40" height="40" viewBox="0 0 40 40" fill="none" xmlns="http://www.w3.org/2000/svg">
<g clip-path="url(#clip0)">
<path d="M25.691 28.8072C25.2704 28.5544 24.8388 28.3004 24.4071 28.0513C24.5086 27.1865 24.5089 26.3116 24.4076 25.4485C24.8409 25.1985 25.2723 24.9446 25.6908 24.693C26.3955 24.2695 26.6892 23.3761 26.3739 22.6146C26.3739 22.6146 26.3739 22.6146 26.3739 22.6145L25.4542 20.3944C25.1389 19.6331 24.2998 19.2088 23.5017 19.4076C23.0274 19.5257 22.5428 19.6512 22.0599 19.7808C21.5207 19.0986 20.9021 18.4801 20.219 17.9406C20.3485 17.4576 20.4742 16.9728 20.5923 16.4983C20.7911 15.7006 20.3669 14.8612 19.6056 14.5458L17.3855 13.6262C16.6242 13.3108 15.7306 13.6043 15.307 14.3091C15.0547 14.729 14.8006 15.1606 14.5512 15.593C13.6866 15.4915 12.8119 15.4912 11.9484 15.5924C11.6982 15.1587 11.4442 14.7273 11.1929 14.3091C10.7692 13.6044 9.87573 13.3108 9.1144 13.6262L6.89424 14.5458C6.13315 14.8612 5.70877 15.7006 5.9076 16.4983C6.02596 16.9737 6.15143 17.4584 6.28073 17.9401C5.59862 18.4791 4.98003 19.098 4.44065 19.781C3.95659 19.6511 3.47174 19.5256 2.99823 19.4076C2.20026 19.2087 1.36104 19.6333 1.04565 20.3944L0.126197 22.6145C-0.189037 23.3758 0.104635 24.2694 0.809166 24.6928C1.22909 24.9451 1.66073 25.1992 2.09299 25.4487C1.99159 26.3132 1.99135 27.1879 2.09253 28.0515C1.65987 28.3011 1.22846 28.5551 0.80901 28.8071C0.104478 29.2306 -0.189193 30.1241 0.126119 30.8855L1.04581 33.1056C1.36112 33.8668 2.2001 34.2912 2.99838 34.0923C3.47213 33.9744 3.95682 33.8489 4.44003 33.7192C4.97917 34.4013 5.59784 35.0198 6.28088 35.5593C6.1512 36.0428 6.02565 36.5277 5.9076 37.0016C5.70877 37.7993 6.13299 38.6387 6.89424 38.9541L9.11448 39.8737C9.32073 39.9591 9.53659 39.9999 9.75018 39.9999C10.3253 39.9999 10.8841 39.7047 11.1932 39.1909C11.4436 38.7743 11.6976 38.3428 11.949 37.9072C12.8135 38.0085 13.6884 38.0087 14.5518 37.9077C14.8002 38.3383 15.0542 38.7697 15.3073 39.191C15.7309 39.8957 16.6243 40.1892 17.3858 39.8739L19.606 38.9543C20.3671 38.639 20.7914 37.7995 20.5926 37.0018C20.4752 36.5305 20.3497 36.0458 20.2195 35.56C20.9014 35.021 21.5201 34.4023 22.0596 33.7192C22.5423 33.8487 23.0271 33.9741 23.5018 34.0924C24.2996 34.2914 25.139 33.8671 25.4544 33.1057L26.374 30.8855C26.6892 30.1241 26.3955 29.2306 25.691 28.8072ZM23.8372 32.3307C23.3812 32.2165 22.9164 32.0957 22.4542 31.9712C21.7998 31.7951 21.1092 32.0252 20.6949 32.5577C20.2186 33.1694 19.6674 33.7206 19.0567 34.1962C18.5249 34.6104 18.2952 35.3007 18.4714 35.9547C18.5966 36.4198 18.7173 36.8844 18.8308 37.3372L16.79 38.1824C16.5473 37.7774 16.3042 37.3636 16.0667 36.9508C15.7286 36.3637 15.078 36.0384 14.4092 36.1212C13.6411 36.2166 12.8615 36.2166 12.0924 36.1209C11.4217 36.0376 10.7717 36.3629 10.4337 36.9501C10.1932 37.3676 9.9501 37.7816 9.71002 38.1823L7.66924 37.337C7.78338 36.8818 7.90417 36.417 8.02885 35.9541C8.20502 35.2998 7.97479 34.6092 7.44237 34.1948C6.83065 33.7186 6.27948 33.1675 5.80385 32.5569C5.38979 32.0249 4.69948 31.7952 4.04526 31.9713C3.58253 32.0959 3.11792 32.2167 2.66284 32.3308L1.81753 30.2901C2.22065 30.0484 2.63463 29.8053 3.04917 29.5666C3.63628 29.2286 3.9619 28.5781 3.87878 27.9092C3.78323 27.1411 3.78346 26.3616 3.87901 25.5924C3.96245 24.9229 3.63706 24.2717 3.04963 23.9336C2.63526 23.695 2.2212 23.4519 1.81745 23.2098L2.66276 21.1691C3.11745 21.283 3.58213 21.4038 4.04573 21.5286C4.69979 21.7048 5.39042 21.4745 5.8051 20.9421C6.28128 20.3304 6.83245 19.7791 7.44299 19.3037C7.97487 18.8895 8.20463 18.1991 8.02846 17.5449C7.90424 17.0837 7.78346 16.6191 7.66901 16.1626L9.70979 15.3173C9.95073 15.7194 10.1939 16.1333 10.4332 16.549C10.7713 17.1361 11.4224 17.4622 12.0906 17.3785C12.8584 17.283 13.6378 17.283 14.4076 17.3789C15.0775 17.4623 15.7283 17.1365 16.0663 16.5494C16.3048 16.1351 16.548 15.721 16.7899 15.3173L18.8307 16.1626C18.7164 16.6183 18.5956 17.083 18.471 17.5456C18.2949 18.1998 18.5251 18.8905 19.0575 19.3049C19.6692 19.7811 20.2204 20.3322 20.696 20.9428C21.1101 21.4746 21.8002 21.7044 22.4547 21.5283C22.9171 21.4037 23.3817 21.283 23.8371 21.1688L24.6823 23.2095C24.2797 23.4508 23.8658 23.6939 23.4507 23.933C22.8635 24.271 22.5378 24.9216 22.621 25.5905C22.7166 26.3582 22.7164 27.1378 22.6207 27.9074C22.5374 28.577 22.8629 29.228 23.4501 29.5661C23.8639 29.8043 24.2779 30.0474 24.6823 30.2898L23.8372 32.3307Z" fill="#B2BFCD"/>
<path d="M18.8877 24.415C18.8877 24.415 18.8877 24.415 18.8876 24.4149C17.6001 21.3064 14.0238 19.8249 10.9149 21.1125C7.80642 22.4001 6.32485 25.9767 7.61251 29.0852C8.23618 30.5912 9.40915 31.7639 10.9149 32.3877C11.6678 32.6995 12.4589 32.8554 13.25 32.8554C14.0411 32.8554 14.8322 32.6995 15.5852 32.3877C18.6937 31.1001 20.1752 27.5236 18.8877 24.415ZM14.9 30.7335C13.8361 31.1742 12.6643 31.1741 11.6001 30.7335C10.5362 30.2928 9.70751 29.464 9.26673 28.4001C8.35681 26.2036 9.40368 23.6765 11.6002 22.7667C12.1381 22.5439 12.6956 22.4384 13.2445 22.4384C14.9372 22.4384 16.5464 23.4415 17.2335 25.1001C18.1433 27.2965 17.0964 29.8237 14.9 30.7335Z" fill="#B2BFCD"/>
<path d="M38.7932 7.88562C38.4841 7.83937 38.1667 7.79445 37.847 7.7518C37.6859 7.21609 37.4708 6.69672 37.2053 6.20344C37.4009 5.94758 37.5937 5.69125 37.7801 5.43945C38.1937 4.88 38.1339 4.08656 37.641 3.59391L36.406 2.35906C35.9131 1.86609 35.1197 1.80633 34.5604 2.22016C34.3077 2.40711 34.0515 2.59984 33.7964 2.79477C33.3032 2.5293 32.7839 2.31414 32.248 2.15297C32.2053 1.83328 32.1605 1.51586 32.1143 1.20687C32.0114 0.518906 31.4081 0 30.7111 0H28.9645C28.2675 0 27.6642 0.518906 27.5613 1.2068C27.5151 1.51562 27.4703 1.83312 27.4276 2.15289C26.8917 2.31406 26.3723 2.52922 25.8792 2.79469C25.6243 2.59969 25.3679 2.40687 25.1153 2.22008C24.5558 1.80625 23.7624 1.86602 23.2697 2.35891L22.0348 3.59367C21.5419 4.08648 21.4819 4.88 21.8958 5.43953C22.0819 5.69125 22.2748 5.94766 22.4703 6.20344C22.205 6.69664 21.9898 7.21594 21.8286 7.7518C21.509 7.79453 21.1915 7.83937 20.8825 7.88562C20.1944 7.98859 19.6755 8.5918 19.6755 9.28891V11.0354C19.6755 11.7324 20.1943 12.3357 20.8823 12.4387C21.1914 12.4849 21.5088 12.5298 21.8285 12.5725C21.9897 13.1083 22.2048 13.6276 22.4702 14.1209C22.2748 14.3765 22.082 14.6327 21.8955 14.8848C21.4819 15.4441 21.5416 16.2377 22.0345 16.7303L23.2695 17.9653C23.7623 18.4583 24.5558 18.518 25.1151 18.1042C25.3678 17.9174 25.6241 17.7245 25.8791 17.5297C26.3724 17.7952 26.8918 18.0103 27.4275 18.1714C27.4701 18.491 27.515 18.8085 27.5612 19.1176C27.6642 19.8055 28.2675 20.3245 28.9645 20.3245H30.7111C31.4081 20.3245 32.0114 19.8057 32.1143 19.1175C32.1605 18.8084 32.2053 18.491 32.248 18.1713C32.7838 18.0103 33.3031 17.795 33.7964 17.5295C34.0513 17.7245 34.3077 17.9173 34.5603 18.1042C35.1196 18.518 35.9132 18.4583 36.4059 17.9654L37.6409 16.7305C38.1338 16.2377 38.1937 15.4442 37.7798 14.8848C37.5934 14.6327 37.4006 14.3763 37.2053 14.1209C37.4706 13.6277 37.6858 13.1085 37.847 12.5726C38.1666 12.5298 38.4841 12.485 38.7931 12.4388C39.4812 12.3358 40.0001 11.7326 40.0001 11.0355V9.28898C40 8.59188 39.4812 7.98859 38.7932 7.88562ZM38.299 10.7923C38.0184 10.833 37.7321 10.8726 37.4448 10.91C36.8766 10.9841 36.4115 11.3874 36.2601 11.9373C36.115 12.4637 35.9044 12.9718 35.6344 13.4473C35.3523 13.9436 35.3958 14.5578 35.7452 15.0123C35.9214 15.2413 36.0962 15.4719 36.2662 15.6997L35.3753 16.5907C35.1468 16.4202 34.9162 16.2455 34.6876 16.0697C34.2334 15.7201 33.6191 15.6769 33.1226 15.9587C32.6471 16.2288 32.139 16.4394 31.6129 16.5845C31.0627 16.736 30.6594 17.2012 30.5855 17.7692C30.5481 18.0565 30.5087 18.3429 30.4679 18.6235H29.2077C29.167 18.3429 29.1276 18.0566 29.0901 17.7695C29.0159 17.2013 28.6127 16.7361 28.0627 16.5845C27.5364 16.4395 27.0285 16.229 26.5528 15.9588C26.0564 15.6768 25.442 15.7202 24.9879 16.0697C24.7592 16.2455 24.5288 16.4202 24.3001 16.5907L23.4092 15.6997C23.5793 15.4716 23.754 15.2413 23.9304 15.012C24.2796 14.5577 24.3231 13.9434 24.0411 13.4471C23.771 12.9716 23.5605 12.4635 23.4154 11.9372C23.2639 11.3872 22.7988 10.984 22.2306 10.9098C21.9433 10.8723 21.6569 10.833 21.3763 10.7921V9.53211C21.6569 9.49141 21.9433 9.45187 22.2305 9.41445C22.7987 9.34031 23.2639 8.93703 23.4153 8.38719C23.5604 7.86078 23.7708 7.35273 24.041 6.87719C24.3231 6.38086 24.2796 5.76656 23.9303 5.31227C23.7538 5.08289 23.5791 4.85242 23.4092 4.62477L24.3001 3.73375C24.5287 3.9043 24.7591 4.07898 24.9876 4.25469C25.4417 4.6043 26.056 4.64789 26.5528 4.36578C27.0282 4.0957 27.5363 3.88516 28.0626 3.74C28.6127 3.58844 29.016 3.12328 29.0899 2.55523C29.1274 2.26797 29.1669 1.98164 29.2076 1.70102H30.4678C30.5085 1.98156 30.548 2.26789 30.5854 2.555C30.6595 3.12328 31.0628 3.58844 31.6127 3.73992C32.1391 3.885 32.6473 4.09562 33.1227 4.3657C33.6192 4.64781 34.2335 4.60398 34.6876 4.25477C34.9162 4.07898 35.1466 3.9043 35.3753 3.73375L36.2662 4.62477C36.0963 4.8525 35.9216 5.08305 35.7451 5.3125C35.3958 5.76672 35.3524 6.38094 35.6343 6.87727C35.9044 7.35289 36.1149 7.86102 36.26 8.38727C36.4115 8.93727 36.8765 9.34047 37.4448 9.41461C37.732 9.45211 38.0184 9.49156 38.299 9.53234V10.7923Z" fill="#B2BFCD"/>
<path d="M29.838 6.53711C27.8391 6.53711 26.2129 8.16328 26.2129 10.1622C26.2129 12.1612 27.8391 13.7873 29.838 13.7873C31.8369 13.7873 33.463 12.1612 33.463 10.1622C33.463 8.16328 31.8369 6.53711 29.838 6.53711ZM29.838 12.1759C28.7277 12.1759 27.8243 11.2725 27.8243 10.1621C27.8243 9.05172 28.7277 8.14844 29.838 8.14844C30.9483 8.14844 31.8516 9.0518 31.8516 10.1621C31.8516 11.2725 30.9483 12.1759 29.838 12.1759Z" fill="#B2BFCD"/>
</g>
<defs>
<clipPath id="clip0">
<rect width="40" height="40" fill="white"/>
</clipPath>
</defs>
</svg>
